<svg width="1600" height="900" viewBox="0 0 1600 900" xmlns="http://www.w3.org/2000/svg">
<defs><radialGradient id="a" cx="50%" cy="40%" r="70%"><stop offset="0" stop-color="#164a72"/><stop offset=".45" stop-color="#0b1422"/><stop offset="1" stop-color="#05070d"/></radialGradient><linearGradient id="b" x1="0" y1="0" x2="1" y2="1"><stop stop-color="#55dcff"/><stop offset="1" stop-color="#7357ff"/></linearGradient></defs><rect width="1600" height="900" fill="url(#a)"/><g opacity=".35" stroke="#6ee7ff" stroke-width="2"><path d="M0 620 C260 520 420 760 680 640 S1160 440 1600 580"/><path d="M0 690 C300 590 470 830 780 700 S1230 520 1600 650"/><path d="M0 760 C280 660 560 860 900 760 S1280 640 1600 730"/></g><g transform="translate(865 185)"><rect x="0" y="0" width="520" height="360" rx="35" fill="#07111f" stroke="#46d7ff" opacity=".92"/><circle cx="260" cy="180" r="125" fill="none" stroke="url(#b)" stroke-width="18" opacity=".9"/><circle cx="260" cy="180" r="58" fill="url(#b)" opacity=".95"/><path d="M60 305h400" stroke="#fff" opacity=".16"/><path d="M82 72h150M82 100h95" stroke="#fff" opacity=".2" stroke-width="10" stroke-linecap="round"/></g><g opacity=".5" fill="#fff"><circle cx="190" cy="180" r="3"/><circle cx="240" cy="250" r="2"/><circle cx="1320" cy="130" r="3"/><circle cx="1460" cy="360" r="2"/><circle cx="710" cy="120" r="2"/></g></svg>
