<svg width="340" height="90" viewBox="0 0 340 90" fill="none" xmlns="http://www.w3.org/2000/svg">
<rect width="90" height="90" rx="22" fill="url(#g)"/><path d="M26 58V25h18c13 0 22 7 22 18s-9 18-22 18h-7v12H26V58Zm11-7h7c7 0 11-3 11-8s-4-8-11-8h-7v16Z" fill="#061018"/><path d="M104 32h24c14 0 24 9 24 22s-10 22-24 22h-24V32Zm23 34c8 0 13-5 13-12s-5-12-13-12h-11v24h11Z" fill="#F6FBFF"/><text x="104" y="28" font-family="Arial, sans-serif" font-size="20" font-weight="700" fill="#53D7FF">PANOTECH</text><text x="154" y="73" font-family="Arial, sans-serif" font-size="35" font-weight="800" fill="#F6FBFF">3D</text><defs><linearGradient id="g" x1="0" y1="0" x2="90" y2="90"><stop stop-color="#69E7FF"/><stop offset=".55" stop-color="#12A9FF"/><stop offset="1" stop-color="#6B4DFF"/></linearGradient></defs></svg>
